REM MD5 21527ae200f65c9c701667f4cbdc0d7b
FILE "Experience the Magic of Disney on PlayStation (Europe).bin" BINARY
  TRACK 01 MODE2/2352
    INDEX 01 00:00:00
  TRACK 02 AUDIO
    INDEX 00 20:42:06
    INDEX 01 20:44:06
  TRACK 03 AUDIO
    INDEX 00 21:47:04
    INDEX 01 21:49:04
REM LEADOUT 24:50:36
